<svg id="Layer_1" data-name="Layer 1" xmlns="http://www.w3.org/2000/svg" viewBox="0 0 64 64"><defs><style>.cls-1{fill:#21cd7d;}.cls-2{fill:#fbc104;}</style></defs><title>decoration_1</title><path class="cls-1" d="M60.71,31.29,52.38,23V13.62a4.51,4.51,0,0,0,0-1.27c-.21-.72-.86-.73-1.47-.73H41L33.5,4.09a4.79,4.79,0,0,0-1-1c-.72-.38-1.2.15-1.66.61L26.57,8,23,11.62H13.62a4.51,4.51,0,0,0-1.27,0c-.72.21-.73.86-.73,1.47V23L4.09,30.5a4.79,4.79,0,0,0-1,1c-.38.72.15,1.2.61,1.66L8,37.43l3.6,3.6v9.35a4.51,4.51,0,0,0,0,1.27c.21.72.86.73,1.47.73H23l7.53,7.53a4.6,4.6,0,0,0,1,1c.71.37,1.19-.15,1.65-.61L37.43,56l3.6-3.6h9.35a4.51,4.51,0,0,0,1.27,0c.72-.21.73-.86.73-1.47V41L57,36.45l2.86-2.86C60.39,33,61.57,32.15,60.71,31.29Zm-10,8.62c-.44.44-.3,1.31-.3,1.88v8.59H41.2a2.69,2.69,0,0,0-2.13,1.14l-4,4-3,3-6.67-6.67c-.65-.65-1.22-1.5-2.2-1.54-1.63-.06-3.29,0-4.93,0H13.62V41.2a2.69,2.69,0,0,0-1.14-2.13l-4-4-3-3,6.67-6.67c.65-.65,1.5-1.22,1.54-2.2.06-1.63,0-3.29,0-4.93V13.62H22.8a2.69,2.69,0,0,0,2.13-1.14l4-4,3-3,6.67,6.67c.65.65,1.22,1.5,2.2,1.54,1.63.06,3.29,0,4.93,0h4.58V22.8a2.69,2.69,0,0,0,1.14,2.13l4,4,3,3Z" id="id_101" style="fill: rgb(232, 232, 232);"></path><path class="cls-1" d="M50.68,24.09c-.44-.44-.3-1.31-.3-1.88V13.62H41.2a2.69,2.69,0,0,1-2.13-1.14l-4-4-3-3-6.67,6.67c-.65.65-1.22,1.5-2.2,1.54-1.63.06-3.29,0-4.93,0H13.62V22.8a2.69,2.69,0,0,1-1.14,2.13l-4,4-3,3,6.67,6.67c.65.65,1.5,1.22,1.54,2.2.06,1.63,0,3.29,0,4.93v4.58H22.8a2.69,2.69,0,0,1,2.13,1.14l4,4,3,3,6.67-6.67c.65-.65,1.22-1.5,2.2-1.54,1.63-.06,3.29,0,4.93,0h4.58V41.2a2.69,2.69,0,0,1,1.14-2.13l4-4,3-3ZM45.46,38v5.81a1.88,1.88,0,0,1-.29,1.41,1.88,1.88,0,0,1-1.41.29H38l-2.9,2.91-1.72,1.72c-.37.37-.76.91-1.33.91s-1-.54-1.33-.91L29,48.37l-2.9-2.91H20.24a1.88,1.88,0,0,1-1.41-.29,1.88,1.88,0,0,1-.29-1.41V38l-2.91-2.9-1.72-1.72C13.55,33,13,32.57,13,32s.54-1,.91-1.33L15.63,29l2.91-2.9V20.24a1.88,1.88,0,0,1,.29-1.41,1.88,1.88,0,0,1,1.41-.29h5.81L29,15.63l1.72-1.72C31,13.55,31.43,13,32,13s1,.54,1.33.91l1.72,1.72L38,18.54h5.81a1.88,1.88,0,0,1,1.41.29,1.88,1.88,0,0,1,.29,1.41v5.81L48.37,29l1.72,1.72c.36.37.91.76.91,1.33s-.54,1-.91,1.33l-1.72,1.72Z" id="id_102" style="fill: rgb(141, 194, 227);"></path><path class="cls-1" d="M48.59,32l-2.28,2.28a28.88,28.88,0,0,0-2.54,2.53c-.6.77-.31,2.28-.31,3.2v3.45H40c-.92,0-2.43-.29-3.2.31a30.32,30.32,0,0,0-2.53,2.54L32,48.59l-2.28-2.28a28.88,28.88,0,0,0-2.53-2.54c-.77-.6-2.28-.31-3.2-.31H20.54V40c0-.92.29-2.43-.31-3.2a30.32,30.32,0,0,0-2.54-2.53L15.41,32l2.28-2.28a28.88,28.88,0,0,0,2.54-2.53c.6-.77.31-2.28.31-3.2V20.54H24c.92,0,2.43.29,3.2-.31a30.32,30.32,0,0,0,2.53-2.54L32,15.41l2.28,2.28a28.88,28.88,0,0,0,2.53,2.54c.77.6,2.28.31,3.2.31h3.45V24c0,.92-.29,2.43.31,3.2a30.32,30.32,0,0,0,2.54,2.53Z" id="id_103"></path><path class="cls-2" d="M48.59,32l-2.28,2.28a28.88,28.88,0,0,0-2.54,2.53c-.6.77-.31,2.28-.31,3.2v3.45H40c-.92,0-2.43-.29-3.2.31a30.32,30.32,0,0,0-2.53,2.54L32,48.59l-2.28-2.28a28.88,28.88,0,0,0-2.53-2.54c-.77-.6-2.28-.31-3.2-.31H20.54V40c0-.92.29-2.43-.31-3.2a30.32,30.32,0,0,0-2.54-2.53L15.41,32l2.28-2.28a28.88,28.88,0,0,0,2.54-2.53c.6-.77.31-2.28.31-3.2V20.54H24c.92,0,2.43.29,3.2-.31a30.32,30.32,0,0,0,2.53-2.54L32,15.41l2.28,2.28a28.88,28.88,0,0,0,2.53,2.54c.77.6,2.28.31,3.2.31h3.45V24c0,.92-.29,2.43.31,3.2a30.32,30.32,0,0,0,2.54,2.53Z" id="id_104" style="fill: rgb(250, 250, 250);"></path></svg>